<svg xmlns="http://www.w3.org/2000/svg" width="1200" height="300" viewBox="0 0 1200 300" role="img" aria-label="NOBLE — a retro-futurist HUD terminal workspace">
<defs>
<radialGradient id="glow" cx="50%" cy="42%" r="55%"><stop offset="0" stop-color="#ffb020" stop-opacity="0.22"/><stop offset="1" stop-color="#ffb020" stop-opacity="0"/></radialGradient>
<pattern id="grid" width="24" height="24" patternUnits="userSpaceOnUse"><path d="M24,0 H0 V24" fill="none" stroke="#3d3326" stroke-width="0.6" opacity="0.55"/></pattern>
<pattern id="scan" width="4" height="4" patternUnits="userSpaceOnUse"><rect width="4" height="1" fill="#000" opacity="0.14"/></pattern>
<linearGradient id="fill" x1="0" y1="0" x2="0" y2="1"><stop offset="0" stop-color="#ffd27a"/><stop offset="0.55" stop-color="#ffb020"/><stop offset="1" stop-color="#ff8a1f"/></linearGradient>
<filter id="blur" x="-20%" y="-40%" width="140%" height="180%"><feGaussianBlur stdDeviation="9"/></filter>
<clipPath id="card"><rect width="1200" height="300" rx="18"/></clipPath>
</defs>
<g clip-path="url(#card)">
<rect width="1200" height="300" fill="#0c0a07"/>
<rect width="1200" height="300" fill="url(#grid)"/>
<rect width="1200" height="300" fill="url(#glow)"/>
<g fill="#ffb020" opacity="0.55" filter="url(#blur)"><rect x="322" y="58" width="15" height="15" rx="2"/><rect x="394" y="58" width="15" height="15" rx="2"/><rect x="322" y="76" width="15" height="15" rx="2"/><rect x="340" y="76" width="15" height="15" rx="2"/><rect x="394" y="76" width="15" height="15" rx="2"/><rect x="322" y="94" width="15" height="15" rx="2"/><rect x="340" y="94" width="15" height="15" rx="2"/><rect x="394" y="94" width="15" height="15" rx="2"/><rect x="322" y="112" width="15" height="15" rx="2"/><rect x="358" y="112" width="15" height="15" rx="2"/><rect x="394" y="112" width="15" height="15" rx="2"/><rect x="322" y="130" width="15" height="15" rx="2"/><rect x="376" y="130" width="15" height="15" rx="2"/><rect x="394" y="130" width="15" height="15" rx="2"/><rect x="322" y="148" width="15" height="15" rx="2"/><rect x="376" y="148" width="15" height="15" rx="2"/><rect x="394" y="148" width="15" height="15" rx="2"/><rect x="322" y="166" width="15" height="15" rx="2"/><rect x="394" y="166" width="15" height="15" rx="2"/><rect x="458" y="58" width="15" height="15" rx="2"/><rect x="476" y="58" width="15" height="15" rx="2"/><rect x="494" y="58" width="15" height="15" rx="2"/><rect x="440" y="76" width="15" height="15" rx="2"/><rect x="512" y="76" width="15" height="15" rx="2"/><rect x="440" y="94" width="15" height="15" rx="2"/><rect x="512" y="94" width="15" height="15" rx="2"/><rect x="440" y="112" width="15" height="15" rx="2"/><rect x="512" y="112" width="15" height="15" rx="2"/><rect x="440" y="130" width="15" height="15" rx="2"/><rect x="512" y="130" width="15" height="15" rx="2"/><rect x="440" y="148" width="15" height="15" rx="2"/><rect x="512" y="148" width="15" height="15" rx="2"/><rect x="458" y="166" width="15" height="15" rx="2"/><rect x="476" y="166" width="15" height="15" rx="2"/><rect x="494" y="166" width="15" height="15" rx="2"/><rect x="556" y="58" width="15" height="15" rx="2"/><rect x="574" y="58" width="15" height="15" rx="2"/><rect x="592" y="58" width="15" height="15" rx="2"/><rect x="610" y="58" width="15" height="15" rx="2"/><rect x="556" y="76" width="15" height="15" rx="2"/><rect x="628" y="76" width="15" height="15" rx="2"/><rect x="556" y="94" width="15" height="15" rx="2"/><rect x="628" y="94" width="15" height="15" rx="2"/><rect x="556" y="112" width="15" height="15" rx="2"/><rect x="574" y="112" width="15" height="15" rx="2"/><rect x="592" y="112" width="15" height="15" rx="2"/><rect x="610" y="112" width="15" height="15" rx="2"/><rect x="556" y="130" width="15" height="15" rx="2"/><rect x="628" y="130" width="15" height="15" rx="2"/><rect x="556" y="148" width="15" height="15" rx="2"/><rect x="628" y="148" width="15" height="15" rx="2"/><rect x="556" y="166" width="15" height="15" rx="2"/><rect x="574" y="166" width="15" height="15" rx="2"/><rect x="592" y="166" width="15" height="15" rx="2"/><rect x="610" y="166" width="15" height="15" rx="2"/><rect x="674" y="58" width="15" height="15" rx="2"/><rect x="674" y="76" width="15" height="15" rx="2"/><rect x="674" y="94" width="15" height="15" rx="2"/><rect x="674" y="112" width="15" height="15" rx="2"/><rect x="674" y="130" width="15" height="15" rx="2"/><rect x="674" y="148" width="15" height="15" rx="2"/><rect x="674" y="166" width="15" height="15" rx="2"/><rect x="692" y="166" width="15" height="15" rx="2"/><rect x="710" y="166" width="15" height="15" rx="2"/><rect x="728" y="166" width="15" height="15" rx="2"/><rect x="746" y="166" width="15" height="15" rx="2"/><rect x="790" y="58" width="15" height="15" rx="2"/><rect x="808" y="58" width="15" height="15" rx="2"/><rect x="826" y="58" width="15" height="15" rx="2"/><rect x="844" y="58" width="15" height="15" rx="2"/><rect x="862" y="58" width="15" height="15" rx="2"/><rect x="790" y="76" width="15" height="15" rx="2"/><rect x="790" y="94" width="15" height="15" rx="2"/><rect x="790" y="112" width="15" height="15" rx="2"/><rect x="808" y="112" width="15" height="15" rx="2"/><rect x="826" y="112" width="15" height="15" rx="2"/><rect x="844" y="112" width="15" height="15" rx="2"/><rect x="790" y="130" width="15" height="15" rx="2"/><rect x="790" y="148" width="15" height="15" rx="2"/><rect x="790" y="166" width="15" height="15" rx="2"/><rect x="808" y="166" width="15" height="15" rx="2"/><rect x="826" y="166" width="15" height="15" rx="2"/><rect x="844" y="166" width="15" height="15" rx="2"/><rect x="862" y="166" width="15" height="15" rx="2"/></g>
<g fill="url(#fill)"><rect x="322" y="58" width="15" height="15" rx="2"/><rect x="394" y="58" width="15" height="15" rx="2"/><rect x="322" y="76" width="15" height="15" rx="2"/><rect x="340" y="76" width="15" height="15" rx="2"/><rect x="394" y="76" width="15" height="15" rx="2"/><rect x="322" y="94" width="15" height="15" rx="2"/><rect x="340" y="94" width="15" height="15" rx="2"/><rect x="394" y="94" width="15" height="15" rx="2"/><rect x="322" y="112" width="15" height="15" rx="2"/><rect x="358" y="112" width="15" height="15" rx="2"/><rect x="394" y="112" width="15" height="15" rx="2"/><rect x="322" y="130" width="15" height="15" rx="2"/><rect x="376" y="130" width="15" height="15" rx="2"/><rect x="394" y="130" width="15" height="15" rx="2"/><rect x="322" y="148" width="15" height="15" rx="2"/><rect x="376" y="148" width="15" height="15" rx="2"/><rect x="394" y="148" width="15" height="15" rx="2"/><rect x="322" y="166" width="15" height="15" rx="2"/><rect x="394" y="166" width="15" height="15" rx="2"/><rect x="458" y="58" width="15" height="15" rx="2"/><rect x="476" y="58" width="15" height="15" rx="2"/><rect x="494" y="58" width="15" height="15" rx="2"/><rect x="440" y="76" width="15" height="15" rx="2"/><rect x="512" y="76" width="15" height="15" rx="2"/><rect x="440" y="94" width="15" height="15" rx="2"/><rect x="512" y="94" width="15" height="15" rx="2"/><rect x="440" y="112" width="15" height="15" rx="2"/><rect x="512" y="112" width="15" height="15" rx="2"/><rect x="440" y="130" width="15" height="15" rx="2"/><rect x="512" y="130" width="15" height="15" rx="2"/><rect x="440" y="148" width="15" height="15" rx="2"/><rect x="512" y="148" width="15" height="15" rx="2"/><rect x="458" y="166" width="15" height="15" rx="2"/><rect x="476" y="166" width="15" height="15" rx="2"/><rect x="494" y="166" width="15" height="15" rx="2"/><rect x="556" y="58" width="15" height="15" rx="2"/><rect x="574" y="58" width="15" height="15" rx="2"/><rect x="592" y="58" width="15" height="15" rx="2"/><rect x="610" y="58" width="15" height="15" rx="2"/><rect x="556" y="76" width="15" height="15" rx="2"/><rect x="628" y="76" width="15" height="15" rx="2"/><rect x="556" y="94" width="15" height="15" rx="2"/><rect x="628" y="94" width="15" height="15" rx="2"/><rect x="556" y="112" width="15" height="15" rx="2"/><rect x="574" y="112" width="15" height="15" rx="2"/><rect x="592" y="112" width="15" height="15" rx="2"/><rect x="610" y="112" width="15" height="15" rx="2"/><rect x="556" y="130" width="15" height="15" rx="2"/><rect x="628" y="130" width="15" height="15" rx="2"/><rect x="556" y="148" width="15" height="15" rx="2"/><rect x="628" y="148" width="15" height="15" rx="2"/><rect x="556" y="166" width="15" height="15" rx="2"/><rect x="574" y="166" width="15" height="15" rx="2"/><rect x="592" y="166" width="15" height="15" rx="2"/><rect x="610" y="166" width="15" height="15" rx="2"/><rect x="674" y="58" width="15" height="15" rx="2"/><rect x="674" y="76" width="15" height="15" rx="2"/><rect x="674" y="94" width="15" height="15" rx="2"/><rect x="674" y="112" width="15" height="15" rx="2"/><rect x="674" y="130" width="15" height="15" rx="2"/><rect x="674" y="148" width="15" height="15" rx="2"/><rect x="674" y="166" width="15" height="15" rx="2"/><rect x="692" y="166" width="15" height="15" rx="2"/><rect x="710" y="166" width="15" height="15" rx="2"/><rect x="728" y="166" width="15" height="15" rx="2"/><rect x="746" y="166" width="15" height="15" rx="2"/><rect x="790" y="58" width="15" height="15" rx="2"/><rect x="808" y="58" width="15" height="15" rx="2"/><rect x="826" y="58" width="15" height="15" rx="2"/><rect x="844" y="58" width="15" height="15" rx="2"/><rect x="862" y="58" width="15" height="15" rx="2"/><rect x="790" y="76" width="15" height="15" rx="2"/><rect x="790" y="94" width="15" height="15" rx="2"/><rect x="790" y="112" width="15" height="15" rx="2"/><rect x="808" y="112" width="15" height="15" rx="2"/><rect x="826" y="112" width="15" height="15" rx="2"/><rect x="844" y="112" width="15" height="15" rx="2"/><rect x="790" y="130" width="15" height="15" rx="2"/><rect x="790" y="148" width="15" height="15" rx="2"/><rect x="790" y="166" width="15" height="15" rx="2"/><rect x="808" y="166" width="15" height="15" rx="2"/><rect x="826" y="166" width="15" height="15" rx="2"/><rect x="844" y="166" width="15" height="15" rx="2"/><rect x="862" y="166" width="15" height="15" rx="2"/></g>
<rect width="1200" height="300" fill="url(#scan)"/>
</g>
<rect x="0.5" y="0.5" width="1199" height="299" rx="18" fill="none" stroke="#3d3326"/>
<g fill="none" stroke="#ffb020" stroke-width="2.5" opacity="0.9">
<path d="M28,50 V28 H50" /><path d="M1172,50 V28 H1150" /><path d="M28,250 V272 H50" /><path d="M1172,250 V272 H1150" />
</g>
<text x="600.0" y="232" text-anchor="middle" font-family="ui-monospace,'Cascadia Mono','SF Mono',Menlo,Consolas,monospace" font-size="21" fill="#eadfc8" letter-spacing="1">A retro-futurist HUD terminal workspace</text>
<text x="600.0" y="264" text-anchor="middle" font-family="ui-monospace,'Cascadia Mono','SF Mono',Menlo,Consolas,monospace" font-size="14" fill="#8c7c62" letter-spacing="3">SHELLS · PROJECTS · SENSORS · AI QUOTA</text>
<g font-family="ui-monospace,'Cascadia Mono','SF Mono',Menlo,Consolas,monospace" font-size="12" fill="#5fd7d0" opacity="0.85">
<text x="48" y="48">SYS.ONLINE</text><text x="1152" y="48" text-anchor="end">v1.0 ◆ RUST</text>
</g>
</svg>
